<?xml version="1.0" standalone="no"?>
<!DOCTYPE svg PUBLIC "-//W3C//DTD SVG 20010904//EN"
 "http://www.w3.org/TR/2001/REC-SVG-20010904/DTD/svg10.dtd">
<svg version="1.0" xmlns="http://www.w3.org/2000/svg"
 width="405.000000pt" height="405.000000pt" viewBox="0 0 405.000000 405.000000"
 preserveAspectRatio="xMidYMid meet">
<metadata>
Created by potrace 1.14, written by Peter Selinger 2001-2017
</metadata>
<g transform="translate(0.000000,405.000000) scale(0.100000,-0.100000)"
fill="#000000" stroke="none">
<path d="M1937 3534 c-1 -2 -25 -5 -52 -8 -53 -6 -91 -12 -140 -23 -42 -10
-45 -10 -47 -12 -2 -2 -14 -5 -28 -7 -14 -3 -48 -13 -76 -24 -29 -10 -55 -16
-58 -13 -3 4 -6 1 -6 -5 0 -7 -6 -12 -12 -12 -7 -1 -31 -9 -53 -20 -22 -11
-46 -19 -52 -20 -7 0 -13 -5 -13 -11 0 -6 -7 -9 -15 -5 -8 3 -15 1 -15 -4 0
-6 -7 -10 -15 -10 -8 0 -15 -4 -15 -9 0 -5 -11 -12 -25 -15 -14 -4 -25 -10
-25 -15 0 -5 -13 -14 -30 -21 -16 -7 -30 -16 -30 -21 0 -5 -5 -9 -11 -9 -12 0
-56 -34 -119 -91 -22 -20 -40 -35 -40 -33 0 4 -82 -82 -118 -124 -50 -58 -83
-101 -80 -105 2 -2 -4 -11 -12 -20 -31 -34 -41 -47 -50 -69 -10 -23 -20 -40
-53 -90 -10 -16 -15 -28 -11 -28 4 0 0 -8 -9 -17 -8 -10 -20 -37 -26 -60 -7
-24 -17 -43 -23 -43 -6 0 -9 -3 -6 -6 3 -3 -3 -28 -13 -56 -10 -28 -16 -55
-13 -59 3 -5 1 -9 -4 -9 -5 0 -9 -6 -10 -12 0 -7 -3 -24 -6 -38 -13 -54 -19
-86 -21 -116 -1 -17 -4 -35 -7 -40 -17 -28 -11 -323 8 -429 3 -16 7 -41 9 -55
1 -14 4 -25 5 -25 1 0 4 -11 6 -25 4 -20 18 -75 29 -110 6 -19 18 -48 26 -62
5 -10 9 -22 9 -28 0 -5 12 -35 27 -67 15 -32 28 -64 29 -70 1 -7 9 -19 17 -27
7 -8 20 -28 27 -45 7 -17 16 -31 21 -31 5 0 9 -9 9 -19 0 -10 7 -21 15 -25 8
-3 15 -11 15 -19 0 -7 11 -24 25 -37 14 -13 23 -25 21 -27 -4 -5 4 -14 117
-132 44 -44 83 -81 88 -81 6 0 7 -4 4 -10 -3 -5 0 -10 8 -10 8 0 25 -10 38
-23 30 -29 188 -134 209 -139 8 -2 17 -6 20 -9 7 -10 128 -64 175 -79 22 -7
46 -18 54 -24 12 -9 13 -8 6 4 -7 12 -6 13 6 4 8 -6 32 -15 54 -19 22 -5 45
-9 50 -10 6 -2 24 -5 40 -8 17 -3 40 -8 52 -11 22 -5 118 -15 206 -21 34 -2
45 0 40 8 -5 9 -3 9 8 2 11 -9 58 -12 79 -6 3 1 34 4 70 6 36 3 76 7 90 11 14
3 36 7 50 9 14 2 26 4 28 5 1 1 5 3 10 4 53 11 152 41 152 47 0 3 14 9 30 13
17 3 58 19 91 36 34 16 67 30 75 30 8 0 14 4 14 9 0 5 10 13 22 17 12 3 28 12
35 18 32 28 43 36 49 35 3 -1 19 8 35 20 16 12 32 21 35 20 4 0 10 3 13 8 3 6
38 36 76 68 68 57 109 97 150 146 89 107 105 128 105 133 0 4 5 12 10 19 18
21 54 80 75 122 11 22 25 43 30 47 6 4 6 8 1 8 -5 0 -3 7 4 15 7 8 9 15 6 15
-4 0 0 7 8 16 9 8 16 23 16 33 0 9 5 22 12 29 7 7 8 12 4 12 -5 0 -3 7 4 15 7
8 9 15 5 15 -4 0 -3 6 3 13 6 7 13 24 15 37 3 14 10 37 15 51 6 15 8 29 5 32
-3 3 -1 12 3 19 5 7 10 22 12 33 6 36 7 40 14 50 3 6 5 29 4 53 0 23 2 42 5
42 3 0 6 18 7 41 1 22 5 46 9 52 3 7 2 8 -3 4 -8 -8 -43 -140 -46 -174 -1 -7
-5 -13 -10 -13 -4 0 -7 -3 -7 -7 4 -22 -3 -43 -16 -57 -9 -8 -15 -18 -15 -21
2 -14 -44 -102 -75 -146 -19 -27 -35 -53 -35 -58 0 -5 -12 -19 -26 -30 -15
-12 -24 -21 -20 -21 3 0 -6 -14 -21 -32 -60 -69 -213 -214 -213 -202 0 3 -16
-8 -35 -25 -19 -17 -49 -38 -65 -46 -17 -9 -30 -19 -30 -24 0 -4 -6 -8 -12 -8
-7 0 -36 -14 -65 -31 -28 -17 -74 -39 -102 -49 -28 -10 -51 -21 -51 -25 0 -4
-7 -5 -15 -2 -8 4 -15 1 -15 -5 0 -6 -3 -10 -7 -10 -5 1 -10 0 -13 -1 -5 -2
-9 -3 -80 -21 -88 -22 -160 -36 -185 -34 -14 0 -25 -2 -25 -5 0 -3 -28 -6 -62
-7 -164 -5 -264 -1 -321 15 -18 5 -40 8 -49 6 -10 -1 -18 2 -18 8 0 6 -6 8
-14 5 -7 -3 -18 -1 -23 4 -5 5 -20 12 -34 14 -27 5 -34 8 -139 60 -88 43 -170
93 -194 117 -10 10 -20 18 -24 18 -4 0 -23 16 -43 35 -20 19 -40 31 -44 27 -5
-4 -5 -2 -2 4 4 6 -6 23 -21 37 -77 74 -202 269 -202 315 0 6 -4 12 -10 12 -5
0 -10 9 -10 21 0 11 -4 28 -9 38 -6 10 -12 31 -15 47 -2 16 -5 29 -6 29 -12 0
-18 256 -7 305 3 14 6 25 7 25 1 0 3 10 6 23 2 13 11 36 19 53 9 16 13 35 9
41 -4 7 -3 8 4 4 7 -4 14 3 18 19 3 14 10 25 15 25 5 0 8 3 7 8 -6 17 139 165
153 156 5 -3 9 -2 9 3 0 8 51 34 67 35 4 0 17 5 28 11 24 13 215 19 215 7 0
-4 8 -7 18 -5 9 1 34 -6 54 -16 21 -11 44 -19 52 -19 8 0 16 -3 18 -7 2 -5 22
-21 46 -37 24 -16 61 -47 83 -68 l40 -39 20 48 c56 132 91 191 143 243 82 82
104 97 189 129 91 33 171 41 267 26 51 -8 180 -63 180 -76 0 -5 5 -9 11 -9 6
0 31 -21 55 -46 49 -51 94 -138 102 -199 8 -54 7 -172 -1 -215 -20 -111 -61
-219 -114 -302 -13 -21 -20 -38 -16 -38 5 0 3 -4 -2 -8 -6 -4 -21 -21 -33 -39
-33 -47 -192 -203 -192 -188 0 3 -8 -3 -18 -12 -38 -36 -60 -51 -66 -46 -3 4
-6 2 -6 -4 0 -6 -24 -23 -52 -39 -29 -15 -64 -33 -78 -41 -14 -7 -31 -13 -37
-13 -7 0 -13 -5 -13 -11 0 -5 -4 -8 -9 -4 -5 3 -15 -1 -23 -8 -7 -8 -18 -12
-25 -10 -6 2 -14 0 -17 -5 -2 -4 13 -8 35 -8 21 1 39 3 39 7 0 3 10 5 23 5 51
2 217 43 217 55 0 4 9 5 20 2 12 -3 20 0 20 8 0 7 3 10 6 6 4 -3 23 2 44 13
21 11 40 16 44 13 3 -4 6 -1 6 5 0 6 10 14 22 18 25 7 79 43 90 59 4 6 8 6 8
2 0 -8 21 7 48 36 9 9 20 17 25 17 4 0 31 23 59 50 28 27 55 50 61 50 6 0 8 3
5 6 -3 3 6 18 20 33 36 38 62 70 62 77 0 2 8 14 18 25 11 10 25 32 33 47 8 15
20 33 27 40 7 8 10 17 7 22 -3 4 2 13 10 20 8 7 12 16 9 21 -3 5 0 9 5 9 6 0
11 8 11 18 0 10 5 23 12 30 7 7 9 12 5 12 -4 0 0 14 9 31 9 17 18 43 21 58 8
43 11 56 14 56 1 0 2 11 3 25 1 14 4 30 7 35 3 6 5 25 4 43 -1 17 1 32 4 32 7
0 4 134 -6 220 -4 36 -7 77 -7 92 -1 14 -4 24 -8 21 -5 -2 -9 5 -9 16 -2 33
-4 39 -11 47 -5 4 -8 13 -8 20 0 17 -62 148 -72 152 -4 2 -8 8 -8 14 0 34
-154 212 -235 273 -22 16 -46 35 -53 42 -7 7 -18 13 -25 13 -6 0 -20 9 -31 19
-12 11 -50 33 -86 51 -36 17 -82 40 -103 51 -22 10 -47 19 -56 19 -9 0 -21 4
-27 8 -11 9 -68 29 -104 36 -14 3 -52 12 -84 21 -33 9 -65 14 -72 11 -7 -3
-15 -2 -19 2 -3 4 -21 8 -38 10 -48 5 -296 10 -300 6z"/>
</g>
</svg>
